<?xml version="1.0" standalone="no"?>
<!DOCTYPE svg PUBLIC "-//W3C//DTD SVG 20010904//EN"
 "http://www.w3.org/TR/2001/REC-SVG-20010904/DTD/svg10.dtd">
<svg version="1.0" xmlns="http://www.w3.org/2000/svg"
 width="16.000000pt" height="16.000000pt" viewBox="0 0 16.000000 16.000000"
 preserveAspectRatio="xMidYMid meet">
<metadata>
Created by potrace 1.11, written by Peter Selinger 2001-2013
</metadata>
<g transform="translate(0.000000,16.000000) scale(0.001563,-0.001563)"
fill="#000000" stroke="none">
<path d="M1 6098 c1 -2279 5 -4127 9 -4108 4 19 22 112 39 205 18 94 36 179
41 190 5 11 14 45 20 75 37 183 63 295 84 365 13 44 34 125 46 180 12 55 26
114 32 130 11 34 25 83 38 135 24 98 50 191 68 245 11 33 35 112 52 175 17 63
34 122 38 130 3 8 6 20 7 25 1 6 6 21 12 35 6 14 17 45 24 70 19 70 49 163 58
185 13 28 22 55 31 90 5 17 27 82 50 145 23 63 55 156 71 205 16 50 36 101 43
115 8 14 28 67 45 119 17 52 35 99 39 105 4 6 7 13 8 16 0 3 4 14 9 25 4 11
19 49 32 85 37 99 102 260 126 310 11 25 21 47 22 50 0 3 8 21 17 40 8 19 23
55 32 80 10 25 30 72 46 105 37 77 80 180 80 190 0 5 6 16 13 24 7 9 26 45 42
81 31 73 121 265 138 295 10 18 127 254 177 358 12 23 34 62 50 87 15 25 29
51 29 58 1 8 16 37 35 65 19 29 39 63 44 77 6 14 42 81 82 150 40 69 84 145
98 170 14 25 51 88 84 141 32 54 58 100 58 103 0 3 29 49 63 103 129 198 227
355 227 363 0 4 7 11 16 14 8 3 13 10 9 15 -3 5 -1 12 5 16 10 6 100 132 133
188 10 17 33 49 52 71 18 23 39 53 46 67 18 33 113 163 212 289 42 54 77 101
77 103 0 11 -109 27 -345 52 -328 35 -301 29 -326 76 -11 23 -19 42 -17 44 6
6 532 -54 611 -70 231 -46 351 -154 402 -361 35 -138 46 -250 55 -559 12 -372
12 -5288 0 -5710 -16 -564 -59 -762 -195 -898 -115 -115 -295 -168 -774 -228
l-93 -12 -19 -41 c-25 -55 -25 -166 0 -221 32 -72 15 -69 364 -56 511 21 1612
26 2197 10 283 -8 585 -14 670 -14 l155 0 25 45 c21 38 25 58 25 132 0 72 -3
91 -21 115 -21 28 -23 28 -260 55 -291 33 -413 52 -524 85 -265 77 -375 225
-425 573 -33 235 -36 584 -33 3790 3 2964 4 3168 20 3215 17 49 61 101 105
124 117 60 688 75 1009 27 615 -93 1059 -356 1354 -806 237 -361 348 -845 320
-1390 -38 -736 -298 -1245 -810 -1589 -295 -198 -599 -312 -1108 -417 -71 -15
-84 -172 -20 -241 19 -21 31 -23 113 -23 493 0 1180 144 1640 345 364 158 685
394 921 676 241 289 397 647 461 1059 25 163 25 559 0 720 -41 263 -102 461
-212 685 -212 433 -544 770 -976 990 -441 225 -900 338 -1644 406 -181 16
-1282 23 -1749 10 -225 -6 -410 -10 -411 -9 -10 11 292 334 592 635 l363 363
-2175 0 -2175 0 1 -4142z"/>
</g>
</svg>
